<svg width="68" height="68" viewBox="0 0 68 68" fill="none" xmlns="http://www.w3.org/2000/svg">
<rect width="68" height="68" fill="white"/>
<path fill-rule="evenodd" clip-rule="evenodd" d="M58.8433 50.5315C58.8433 50.5315 58.7702 49.7677 58.1524 48.7052C57.5348 47.6359 53.2645 40.2376 53.2645 40.2376L38.0092 13.8115C36.754 11.6397 34.1838 10.5042 31.7796 11.208C30.4315 11.5998 29.3158 12.4964 28.6317 13.6788L7.85095 49.6748C6.36328 52.2384 7.24662 55.5259 9.81684 57.0134C10.5542 57.4383 11.3777 57.6775 12.2212 57.724C12.314 57.724 12.4071 57.724 12.5 57.724L45.5007 57.7242L43.5149 54.2841C43.2026 53.7596 42.6381 53.434 42.0273 53.4274C42.0273 53.4274 24.2816 53.4272 16.2258 53.4272C16.1328 53.4272 16.0332 53.4272 15.94 53.4139C15.8804 53.4139 15.8271 53.4006 15.7741 53.394C15.3625 53.3344 14.9707 53.2016 14.6119 52.9955C13.0713 52.1056 12.5398 50.1329 13.4297 48.5923L30.4847 19.0448C30.4847 19.0448 31.3547 17.4312 33.2742 17.4312C35.1936 17.4312 36.0636 19.0448 36.0636 19.0448L54.3804 50.8304C54.3804 50.8304 55.0447 52.1986 53.5303 53.1682C52.0227 54.1378 50.8872 52.4576 50.8872 52.4576L47.5067 46.5932C47.5067 46.5932 47.301 46.2279 47.002 46.022C46.8758 45.9357 46.7164 45.8361 46.5105 45.7763C46.2713 45.7033 46.172 45.6965 45.5941 45.6965L42.5121 45.6968L48.0311 55.2071C48.0311 55.2071 49.5455 57.5915 52.5672 57.7175C53.3706 57.7506 54.3205 57.7242 55.2833 57.2526C56.5917 56.6084 57.2361 56.0238 57.7805 55.2733C59.4673 52.9555 58.8297 50.5315 58.8297 50.5315H58.8433Z" fill="#ED1C24"/>
<path fill-rule="evenodd" clip-rule="evenodd" d="M39.9947 41.3201C40.4862 42.27 41.4425 42.2567 41.4425 42.2567L45.0025 42.2564L35.5119 25.8192C35.5119 25.8192 34.9009 24.5904 33.347 24.5306C31.6732 24.5306 31.0489 25.8192 31.0489 25.8192L26.7652 33.2375L25.0717 36.1732L23.0923 39.6001L20.9404 43.326L19.6189 45.6172C19.2005 46.2814 19.2468 46.8857 19.2271 47.0385C19.2735 47.9616 19.6322 48.5658 20.2895 49.0774C21.08 49.6222 21.7641 49.5688 21.7641 49.5688L40.7852 49.5687C40.7852 49.5687 39.1514 46.7326 39.0984 46.6463C39.0455 46.56 38.9391 46.3078 38.5537 46.0152C38.1154 45.6964 37.6171 45.7031 37.6171 45.7031L35.8905 45.7032H30.1125C30.1125 45.7032 27.6485 45.7032 27.0174 45.7032C26.1607 45.7232 25.6028 45.0391 25.4434 44.6805C25.0782 43.8636 25.5231 43.1196 25.5231 43.1196L30.2651 34.9043L31.7793 32.2809C31.7793 32.2809 32.2176 31.4109 33.3002 31.4109C34.303 31.4109 34.7747 32.2878 34.7747 32.2878L38.2414 38.2915L39.9882 41.3199L39.9947 41.3201Z" fill="#ED1C24"/>
<path fill-rule="evenodd" clip-rule="evenodd" d="M34.0378 37.853C33.7056 37.2752 32.8623 37.2752 32.5303 37.853L31.6337 39.4005L30.7369 40.9481C30.4048 41.5259 30.8232 42.2563 31.494 42.2563H35.0739C35.7447 42.2563 36.1631 41.5324 35.831 40.9481L34.9344 39.4005L34.0378 37.853Z" fill="#ED1C24"/>
</svg>
