<svg width="17" height="17" viewBox="0 0 17 17" fill="none" xmlns="http://www.w3.org/2000/svg">
<path d="M9.86705 8.94038C9.95247 8.82347 10 8.6651 10 8.5001C10 8.33428 9.95247 8.17591 9.86705 8.05983L7.76989 5.18106C7.59302 4.93896 7.30726 4.93979 7.1316 5.18272C6.95593 5.42649 6.95593 5.82033 7.1328 6.06244L8.90931 8.5001L7.1328 10.9378C6.95593 11.1799 6.95593 11.5729 7.1316 11.8167C7.30726 12.0604 7.59302 12.0613 7.76989 11.8183L9.86705 8.94038Z" fill="#0E579A"/>
<path d="M0 8.5C0 8.9335 0.0323 9.36785 0.0969 9.79115C0.14875 10.1286 0.4624 10.364 0.80155 10.3079C1.139 10.2561 1.3702 9.94075 1.3192 9.60415C1.26395 9.2429 1.2359 8.87145 1.2359 8.5C1.2359 4.4948 4.4948 1.23675 8.5 1.23675C12.5052 1.23675 15.7641 4.4948 15.7641 8.5C15.7641 12.506 12.5052 15.7641 8.5 15.7641C6.22795 15.7641 4.12845 14.7313 2.7421 12.9285C2.53215 12.659 2.14455 12.6072 1.87425 12.8163C1.6048 13.0237 1.5538 13.413 1.76205 13.6833C3.38555 15.7905 5.8412 17 8.5 17C13.1869 17 17 13.1869 17 8.5C17 3.8131 13.1869 0 8.5 0C3.8131 0 0 3.8131 0 8.5Z" fill="#0E579A"/>
</svg>
