<svg width="59" height="59" viewBox="0 0 59 59" fill="none" xmlns="http://www.w3.org/2000/svg">
<circle cx="29.5" cy="29.5" r="28.75" stroke="#FF801F" stroke-width="1.5" stroke-dasharray="3 3"/>
<path d="M29.4966 28.7892C30.0885 28.7892 30.5963 28.576 31.02 28.1497C31.4437 27.7234 31.6555 27.211 31.6555 26.6123C31.6555 26.0137 31.4441 25.5001 31.0213 25.0715C30.5985 24.643 30.0902 24.4287 29.4964 24.4287C28.9027 24.4287 28.3956 24.6425 27.9751 25.0702C27.5547 25.4979 27.3444 26.012 27.3444 26.6126C27.3444 27.2131 27.5552 27.726 27.9767 28.1513C28.3981 28.5766 28.9048 28.7892 29.4966 28.7892ZM29.4951 38.1618C31.9986 35.8481 33.8534 33.7456 35.0597 31.8542C36.266 29.9629 36.8692 28.2951 36.8692 26.8507C36.8692 24.5883 36.159 22.7401 34.7387 21.3062C33.3183 19.8722 31.5714 19.1553 29.4978 19.1553C27.4242 19.1553 25.6779 19.8726 24.2591 21.3071C22.8402 22.7417 22.1308 24.591 22.1308 26.8551C22.1308 28.3012 22.7422 29.9683 23.9649 31.8564C25.1876 33.7446 27.031 35.8463 29.4951 38.1618ZM29.4951 41C26.3046 38.2505 23.9245 35.7062 22.3547 33.3669C20.7849 31.0276 20 28.8568 20 26.8543C20 23.846 20.9545 21.4516 22.8636 19.671C24.7726 17.8903 26.9833 17 29.4957 17C32.0081 17 34.2203 17.8911 36.1322 19.6733C38.0441 21.4554 39 23.8484 39 26.852C39 28.8547 38.2135 31.026 36.6404 33.3659C35.0673 35.7059 32.6856 38.2505 29.4951 41Z" fill="#102C56"/>
</svg>
