<svg width="114" height="90" viewBox="0 0 114 90" fill="none" xmlns="http://www.w3.org/2000/svg">
<path fill-rule="evenodd" clip-rule="evenodd" d="M4.3147 72.9165V47.0286H109.071V72.9165H4.3147Z" fill="#231F20"/>
<path fill-rule="evenodd" clip-rule="evenodd" d="M3.18933 89.0073H1.88269V83.8925L0 83.8927V82.7942L5.07202 82.7939V83.8925L3.18933 83.8927V89.0073Z" fill="#231F20"/>
<path fill-rule="evenodd" clip-rule="evenodd" d="M9.92525 89.0072H8.70915V86.2125C8.70915 85.8765 8.69327 85.3059 7.9198 85.3059C7.38113 85.3059 6.96513 85.6685 6.96513 86.3726V89.0127H5.74927V82.7993H6.96513V85.0073H6.98124C7.13578 84.6287 7.65861 84.2873 8.31995 84.2873C9.22115 84.2873 9.92525 84.8153 9.92525 85.8285V89.0127V89.0072Z" fill="#231F20"/>
<path fill-rule="evenodd" clip-rule="evenodd" d="M15.0188 87.658C14.6987 88.7672 13.7761 89.1301 12.9867 89.1301C11.6853 89.1301 10.688 88.506 10.688 86.6128C10.688 86.0581 10.8801 84.2822 12.9012 84.2822C13.8132 84.2822 15.072 84.7142 15.072 86.8156V87.0342L11.9041 87.0341C11.9413 87.3807 12.0107 88.1594 12.9921 88.1594C13.3335 88.1594 13.6801 87.9887 13.7761 87.6581L15.024 87.658H15.0188ZM13.8186 86.2448C13.7493 85.4981 13.2693 85.2741 12.8799 85.2741C12.3092 85.2741 12.0053 85.6368 11.9359 86.2448H13.8186Z" fill="#231F20"/>
<path fill-rule="evenodd" clip-rule="evenodd" d="M19.3121 87.0927C19.3228 87.4393 19.4934 88.0953 20.6348 88.0953C21.2534 88.0953 21.9361 87.9459 21.9361 87.29C21.9361 86.8045 21.4669 86.6765 20.8055 86.522L20.1389 86.3673C19.1309 86.1328 18.1602 85.9088 18.1602 84.5433C18.1602 83.85 18.5335 82.6287 20.555 82.6287C22.4642 82.6287 22.9762 83.8765 22.9869 84.6393H21.7386C21.7065 84.3619 21.6 83.706 20.4638 83.706C19.9678 83.706 19.3757 83.8875 19.3757 84.4527C19.3757 84.938 19.7757 85.0392 20.0372 85.1033L21.5572 85.4766C22.4105 85.6846 23.1892 86.0313 23.1892 87.1459C23.1892 89.0179 21.2798 89.1779 20.7305 89.1779C18.4532 89.1779 18.064 87.8713 18.064 87.1033H19.3121V87.0927Z" fill="#231F20"/>
<path fill-rule="evenodd" clip-rule="evenodd" d="M25.3278 83.8553H24.1118V82.73H25.3278V83.8553ZM25.3278 84.3992V89.002H24.1118V84.3992H25.3278Z" fill="#231F20"/>
<path fill-rule="evenodd" clip-rule="evenodd" d="M27.7386 89.0073H26.5225V82.7939H27.7386V89.0073Z" fill="#231F20"/>
<path fill-rule="evenodd" clip-rule="evenodd" d="M32.8691 87.658C32.549 88.7672 31.6265 89.1301 30.837 89.1301C29.5357 89.1301 28.5383 88.506 28.5383 86.6128C28.5383 86.0581 28.7305 84.2822 30.7515 84.2822C31.6635 84.2822 32.9223 84.7142 32.9223 86.8156V87.0342L29.7545 87.0341C29.7865 87.3807 29.8558 88.1594 30.837 88.1594C31.1783 88.1594 31.525 87.9887 31.621 87.6581L32.8691 87.658ZM31.669 86.2448C31.5997 85.4981 31.1197 85.2741 30.7302 85.2741C30.1595 85.2741 29.8502 85.6368 29.7808 86.2448H31.6637H31.669Z" fill="#231F20"/>
<path fill-rule="evenodd" clip-rule="evenodd" d="M37.9038 89.0072H36.6878V86.2125C36.6878 85.8765 36.6719 85.3058 35.8984 85.3058C35.3599 85.3058 34.9438 85.6685 34.9438 86.3726V89.0126H33.7278V84.4098H34.8905V85.0872H34.9066C35.0718 84.8098 35.4186 84.2925 36.2986 84.2925C37.1787 84.2925 37.9039 84.8205 37.9039 85.8338V89.0178L37.9038 89.0072Z" fill="#231F20"/>
<path fill-rule="evenodd" clip-rule="evenodd" d="M43.0078 87.3272C42.965 87.8019 42.5918 89.1299 40.8956 89.1299C39.1996 89.1299 38.7625 87.8071 38.7625 86.8365C38.7625 85.3485 39.4131 84.2817 40.9757 84.2817C41.7065 84.2817 42.9063 84.6124 43.0184 86.0472H41.7865C41.733 85.7539 41.5625 85.3057 41.0398 85.3057H40.9811C40.2185 85.3057 40.0158 86.0685 40.0158 86.6392C40.0158 87.1405 40.0318 88.1379 40.9546 88.1379C41.5731 88.1379 41.7813 87.5513 41.7813 87.3325L43.013 87.3324L43.0078 87.3272Z" fill="#231F20"/>
<path fill-rule="evenodd" clip-rule="evenodd" d="M47.8237 87.658C47.5036 88.7672 46.5811 89.1301 45.7916 89.1301C44.4903 89.1301 43.4929 88.506 43.4929 86.6128C43.4929 86.0581 43.685 84.2822 45.7061 84.2822C46.6181 84.2822 47.8769 84.7142 47.8769 86.8156V87.0342L44.7089 87.0341C44.741 87.3807 44.8104 88.1594 45.7916 88.1594C46.1329 88.1594 46.4796 87.9887 46.5756 87.6581L47.8237 87.658ZM46.6237 86.2448C46.5544 85.4981 46.0744 85.2741 45.685 85.2741C45.1144 85.2741 44.8049 85.6368 44.7356 86.2448H46.6182H46.6237Z" fill="#231F20"/>
<path fill-rule="evenodd" clip-rule="evenodd" d="M53.1889 89.1244C51.9463 89.1244 50.8264 88.3616 50.8264 86.7031C50.8264 85.0446 51.9463 84.2817 53.1889 84.2817C54.4317 84.2817 55.5516 85.0446 55.5516 86.7031C55.5516 88.3616 54.4317 89.1244 53.1889 89.1244ZM53.1889 85.3005C52.2503 85.3005 52.0798 86.1112 52.0798 86.7033C52.0798 87.2953 52.2557 88.106 53.1889 88.106C54.1223 88.106 54.2983 87.2953 54.2983 86.7033C54.2983 86.1112 54.1275 85.3005 53.1889 85.3005Z" fill="#231F20"/>
<path fill-rule="evenodd" clip-rule="evenodd" d="M57.802 89.0072H56.5862V85.2687H55.9197V84.4047H56.5862V84.0313C56.5862 83.0767 57.1089 82.7141 57.9409 82.7141C58.2982 82.7141 58.4635 82.7248 58.5649 82.73V83.706H58.2237C57.8075 83.706 57.7969 83.834 57.7969 84.218V84.3995L58.5862 84.3992V85.2632L57.7969 85.2633V89.002L57.802 89.0072Z" fill="#231F20"/>
<path fill-rule="evenodd" clip-rule="evenodd" d="M63.0981 89.0073H61.7969V82.7939H64.6447C65.8502 82.7939 66.5806 83.562 66.5806 84.7833C66.5806 85.3433 66.2659 86.7674 64.5913 86.7674H63.0981V89.0073ZM64.3035 85.6899C65.274 85.6899 65.274 84.9966 65.274 84.7194C65.274 84.1114 64.9327 83.8608 64.1273 83.8608H63.0929V85.6847H64.2982L64.3035 85.6899Z" fill="#231F20"/>
<path fill-rule="evenodd" clip-rule="evenodd" d="M71.1941 87.658C70.874 88.7672 69.9515 89.1301 69.162 89.1301C67.8607 89.1301 66.8633 88.506 66.8633 86.6128C66.8633 86.0581 67.0554 84.2822 69.0765 84.2822C69.9885 84.2822 71.2473 84.7142 71.2473 86.8156V87.0342L68.0795 87.0341C68.1169 87.3807 68.1862 88.1594 69.1677 88.1594C69.5089 88.1594 69.8557 87.9887 69.9516 87.6581L71.1996 87.658H71.1941ZM69.9941 86.2448C69.9248 85.4981 69.4449 85.2741 69.0554 85.2741C68.4848 85.2741 68.1808 85.6368 68.1115 86.2448H69.9941Z" fill="#231F20"/>
<path fill-rule="evenodd" clip-rule="evenodd" d="M72.0422 84.3992H73.2049V85.1938L73.2209 85.194C73.4716 84.7248 73.7487 84.2766 74.4901 84.2766C74.5702 84.2766 74.6448 84.2873 74.7248 84.2925V85.5246C74.6181 85.5086 74.4901 85.5086 74.3781 85.5086C73.4286 85.5086 73.2581 86.0951 73.2581 86.6071V89.0072H72.0422V84.4043V84.3992Z" fill="#231F20"/>
<path fill-rule="evenodd" clip-rule="evenodd" d="M76.8368 89.0072H75.6209V85.2687H74.9541V84.4047H75.6209V84.0313C75.6209 83.0767 76.1436 82.7141 76.9754 82.7141C77.3328 82.7141 77.4981 82.7248 77.5994 82.73V83.706H77.258C76.842 83.706 76.8313 83.834 76.8313 84.218V84.3995L77.6206 84.3992V85.2632L76.8314 85.2633V89.002L76.8368 89.0072Z" fill="#231F20"/>
<path fill-rule="evenodd" clip-rule="evenodd" d="M80.2395 89.1244C78.9968 89.1244 77.877 88.3616 77.877 86.7031C77.877 85.0446 78.9968 84.2817 80.2395 84.2817C81.4823 84.2817 82.6021 85.0446 82.6021 86.7031C82.6021 88.3616 81.4823 89.1244 80.2395 89.1244ZM80.2395 85.3005C79.3008 85.3005 79.1303 86.1112 79.1303 86.7033C79.1303 87.2953 79.3063 88.106 80.2395 88.106C81.1728 88.106 81.3488 87.2953 81.3488 86.7033C81.3488 86.1112 81.178 85.3005 80.2395 85.3005Z" fill="#231F20"/>
<path fill-rule="evenodd" clip-rule="evenodd" d="M83.4395 84.3992H84.602V85.1938L84.6181 85.194C84.8687 84.7248 85.146 84.2766 85.8875 84.2766C85.9675 84.2766 86.0419 84.2873 86.1219 84.2925V85.5246C86.0206 85.5086 85.8874 85.5086 85.7753 85.5086C84.8313 85.5086 84.6553 86.0951 84.6553 86.6071V89.0072H83.4395V84.4043V84.3992Z" fill="#231F20"/>
<path fill-rule="evenodd" clip-rule="evenodd" d="M93.306 89.0071H92.0901V86.2124C92.0901 85.5297 91.7861 85.3057 91.4288 85.3057C90.8208 85.3057 90.6021 85.7058 90.6021 86.2498V89.0123L89.3863 89.0125V86.2445C89.3863 85.8552 89.3863 85.3112 88.6556 85.3112C88.0795 85.3112 87.8983 85.7111 87.8983 86.2124V89.0177H86.6821V84.4151L87.8448 84.4152V85.0925H87.8608C88.0153 84.7885 88.3568 84.2979 89.1728 84.2979C89.8393 84.2979 90.1433 84.5432 90.458 85.0339C90.6127 84.8099 90.9541 84.2979 91.69 84.2979C92.5912 84.2979 93.2953 84.8259 93.2953 85.8391V89.0232L93.306 89.0071Z" fill="#231F20"/>
<path fill-rule="evenodd" clip-rule="evenodd" d="M98.1539 88.106C98.1539 88.65 98.2766 88.7725 98.4206 88.826V89.0073L97.1084 89.0072C97.0391 88.7885 97.0232 88.7191 96.9964 88.4631C96.7191 88.7511 96.3298 89.1297 95.5031 89.1297C94.8098 89.1297 94.0952 88.7405 94.0952 87.7856C94.0952 86.8844 94.6657 86.4256 95.4392 86.3136L96.5326 86.1482C96.7247 86.1216 96.9594 86.0469 96.9594 85.7856C96.9594 85.2736 96.4739 85.247 96.1592 85.247C95.5514 85.247 95.4447 85.6203 95.4127 85.887L94.2392 85.8872C94.378 84.474 95.3592 84.2766 96.3087 84.2766C96.9593 84.2766 98.1486 84.4739 98.1486 85.6101V88.1006L98.1539 88.106ZM96.9646 86.7618C96.8418 86.8578 96.6444 86.9325 96.1379 87.0126C95.6846 87.0926 95.3112 87.2046 95.3112 87.7059C95.3112 88.1327 95.6419 88.2607 95.8767 88.2607C96.4152 88.2607 96.9594 87.914 96.9594 87.3541V86.7674L96.9646 86.7618Z" fill="#231F20"/>
<path fill-rule="evenodd" clip-rule="evenodd" d="M103.413 89.0072H102.197V86.2125C102.197 85.8765 102.181 85.3058 101.407 85.3058C100.869 85.3058 100.453 85.6685 100.453 86.3726V89.0126H99.2366V84.4098H100.399V85.0872H100.415C100.581 84.8098 100.927 84.2925 101.807 84.2925C102.687 84.2925 103.413 84.8205 103.413 85.8338V89.0178V89.0072Z" fill="#231F20"/>
<path fill-rule="evenodd" clip-rule="evenodd" d="M108.517 87.3272C108.474 87.8019 108.1 89.1299 106.404 89.1299C104.708 89.1299 104.271 87.8071 104.271 86.8365C104.271 85.3485 104.922 84.2817 106.484 84.2817C107.215 84.2817 108.415 84.6124 108.527 86.0472H107.295C107.242 85.7539 107.071 85.3057 106.549 85.3057H106.49C105.727 85.3057 105.524 86.0685 105.524 86.6392C105.524 87.1405 105.54 88.1379 106.463 88.1379C107.082 88.1379 107.29 87.5513 107.29 87.3325L108.522 87.3324L108.517 87.3272Z" fill="#231F20"/>
<path fill-rule="evenodd" clip-rule="evenodd" d="M113.332 87.658C113.012 88.7672 112.09 89.1301 111.3 89.1301C109.999 89.1301 109.002 88.506 109.002 86.6128C109.002 86.0581 109.194 84.2822 111.215 84.2822C112.127 84.2822 113.386 84.7142 113.386 86.8156V87.0342L110.218 87.0341C110.25 87.3807 110.319 88.1594 111.301 88.1594C111.642 88.1594 111.989 87.9887 112.085 87.6581L113.332 87.658ZM112.132 86.2448C112.063 85.4981 111.583 85.2741 111.194 85.2741C110.623 85.2741 110.314 85.6368 110.244 86.2448H112.127H112.132Z" fill="#231F20"/>
<path fill-rule="evenodd" clip-rule="evenodd" d="M16.5653 51.3435H10.6135V53.5834H16.5653V51.3435Z" fill="white"/>
<path fill-rule="evenodd" clip-rule="evenodd" d="M14.5814 58.8528H8.62939V61.0927H14.5814V58.8528Z" fill="white"/>
<path fill-rule="evenodd" clip-rule="evenodd" d="M16.5653 66.3619H10.6135V68.6021H16.5653V66.3619Z" fill="white"/>
<path fill-rule="evenodd" clip-rule="evenodd" d="M27.3547 51.3435H24.3359L19.1626 68.6021H22.3149L23.3547 65.1512H28.3519L29.3866 68.6021H32.5386L27.3599 51.3435H27.3547ZM24.2507 62.1327L25.8454 56.826L27.4401 62.1327H24.2507Z" fill="white"/>
<path fill-rule="evenodd" clip-rule="evenodd" d="M67.9092 54.8954L70.325 68.6021H73.2585L75.6744 54.8954V68.6021H78.6984V51.3435H73.6744L71.7919 62.0099L69.9144 51.3435H64.8904V68.6021H67.9092V54.8954Z" fill="white"/>
<path fill-rule="evenodd" clip-rule="evenodd" d="M89.0503 51.3435H86.0315L80.8528 68.6021H84.0048L85.0395 65.1512H90.0367L91.0715 68.6021H94.2235L89.0448 51.3435H89.0503ZM85.9461 62.1327L87.5408 56.826L89.1355 62.1327H85.9515H85.9461Z" fill="white"/>
<path fill-rule="evenodd" clip-rule="evenodd" d="M102.773 51.3435H96.8154V53.5834H102.773V51.3435Z" fill="white"/>
<path fill-rule="evenodd" clip-rule="evenodd" d="M104.757 58.8528H98.8049V61.0927H104.757V58.8528Z" fill="white"/>
<path fill-rule="evenodd" clip-rule="evenodd" d="M96.8157 68.6018V66.3619H102.768V68.6018H96.8157Z" fill="white"/>
<path fill-rule="evenodd" clip-rule="evenodd" d="M45.936 66.2713C45.936 65.4073 45.9095 63.4605 45.9095 63.4605C45.9095 63.4605 45.9628 61.0338 44.144 60.3886C44.144 60.3886 46.2828 59.2525 46.3094 57.3273V55.4021C46.3094 55.4021 46.0268 51.3488 42.0854 51.3488H34.6934V68.6073H37.712V61.8767H41.1626C41.1626 61.8767 42.8907 61.9941 42.8907 63.5408V66.5382C42.8907 66.5382 43.0667 67.9728 43.7547 68.6128H46.7252C46.7252 68.6128 45.9786 67.2421 45.9414 66.2822L45.936 66.2713ZM43.3067 55.9302V57.1301C43.3067 58.6289 41.7867 58.8582 41.5948 58.8582L37.712 58.858V54.3728H41.5147C43.264 54.3728 43.3067 55.8022 43.3067 55.9302Z" fill="white"/>
<path fill-rule="evenodd" clip-rule="evenodd" d="M60.7144 53.3967C59.4666 52.1489 57.7439 51.3809 55.8399 51.3809C52.0371 51.3809 48.9492 54.4687 48.9492 58.2714V61.7114C48.9492 65.5142 52.0319 68.6021 55.8399 68.6021C59.6478 68.6021 62.7304 65.5142 62.7304 61.7114V58.2714C62.7304 56.3674 61.9624 54.6447 60.7144 53.3967ZM59.7116 61.7007C59.7116 63.8447 57.9731 65.5835 55.829 65.5835C53.6848 65.5835 51.9463 63.8449 51.9463 61.7007V58.25C51.9463 56.106 53.6848 54.3674 55.829 54.3674C56.901 54.3674 57.8718 54.8047 58.5703 55.5034C59.2744 56.202 59.7064 57.1726 59.7064 58.2448V61.6955L59.7116 61.7007Z" fill="white"/>
<path fill-rule="evenodd" clip-rule="evenodd" d="M77.2209 32.6182C77.2209 32.6182 77.1622 32.0048 76.6661 31.1516C76.1701 30.2929 72.7409 24.3517 72.7409 24.3517L60.4903 3.13041C59.4823 1.38641 57.4182 0.474509 55.4876 1.03971C54.405 1.35438 53.509 2.07437 52.9597 3.02384L36.2718 31.9303C35.0772 33.9889 35.7865 36.6289 37.8505 37.8234C38.4427 38.1646 39.104 38.3568 39.7813 38.3941C39.8558 38.3941 39.9307 38.3941 40.0052 38.3941L66.5062 38.3942L64.9116 35.6317C64.6608 35.2105 64.2074 34.9491 63.7169 34.9437C63.7169 34.9437 49.4664 34.9436 42.9972 34.9436C42.9225 34.9436 42.8425 34.9436 42.7677 34.9329C42.7198 34.9329 42.677 34.9222 42.6345 34.9169C42.304 34.869 41.9893 34.7624 41.7012 34.5969C40.464 33.8823 40.0372 32.2981 40.7518 31.0609L54.4477 7.33304C54.4477 7.33304 55.1464 6.03719 56.6878 6.03719C58.2292 6.03719 58.9278 7.33304 58.9278 7.33304L73.637 32.8583C73.637 32.8583 74.1705 33.9569 72.9544 34.7356C71.7437 35.5143 70.8318 34.1649 70.8318 34.1649L68.1172 29.4556C68.1172 29.4556 67.952 29.1622 67.7118 28.9969C67.6105 28.9276 67.4825 28.8476 67.3172 28.7996C67.125 28.7409 67.0453 28.7355 66.5812 28.7355L64.1063 28.7357L68.5382 36.3729C68.5382 36.3729 69.7544 38.2877 72.1809 38.3889C72.8261 38.4154 73.5889 38.3942 74.3621 38.0156C75.4128 37.4982 75.9302 37.0288 76.3674 36.4261C77.722 34.5648 77.21 32.6182 77.21 32.6182H77.2209Z" fill="#ED1C24"/>
<path fill-rule="evenodd" clip-rule="evenodd" d="M62.0848 25.2211C62.4795 25.9839 63.2475 25.9732 63.2475 25.9732L66.1063 25.9729L58.4849 12.7732C58.4849 12.7732 57.9943 11.7864 56.7464 11.7384C55.4023 11.7384 54.901 12.7732 54.901 12.7732L51.4609 18.7304L50.101 21.0879L48.5115 23.8398L46.7833 26.8319L45.7221 28.6719C45.3861 29.2052 45.4233 29.6905 45.4075 29.8132C45.4448 30.5545 45.7328 31.0397 46.2607 31.4505C46.8955 31.888 47.4448 31.8452 47.4448 31.8452L62.7196 31.8451C62.7196 31.8451 61.4076 29.5676 61.3651 29.4983C61.3225 29.4289 61.2371 29.2264 60.9276 28.9915C60.5756 28.7355 60.1755 28.7408 60.1755 28.7408L58.7889 28.7409H54.1489C54.1489 28.7409 52.1703 28.7409 51.6635 28.7409C50.9755 28.7569 50.5275 28.2076 50.3995 27.9196C50.1062 27.2636 50.4635 26.6661 50.4635 26.6661L54.2715 20.0689L55.4875 17.9622C55.4875 17.9622 55.8395 17.2636 56.7088 17.2636C57.5142 17.2636 57.8929 17.9677 57.8929 17.9677L60.6768 22.7889L62.0796 25.2209L62.0848 25.2211Z" fill="#ED1C24"/>
<path fill-rule="evenodd" clip-rule="evenodd" d="M57.3011 22.4369C57.0343 21.9729 56.3571 21.9729 56.0904 22.4369L55.3704 23.6795L54.6503 24.9223C54.3836 25.3863 54.7196 25.9729 55.2583 25.9729H58.1331C58.6717 25.9729 59.0077 25.3915 58.7411 24.9223L58.0211 23.6795L57.3011 22.4369Z" fill="#ED1C24"/>
</svg>
