<svg width="27" height="27" viewBox="0 0 27 27" fill="none" xmlns="http://www.w3.org/2000/svg">
<path d="M15.969 1.00012C18.5247 1.26955 20.912 2.40366 22.736 4.21489C24.56 6.02611 25.7115 8.40597 26 10.9609M15.969 6.01813C17.2022 6.26143 18.3338 6.86997 19.217 7.76479C20.1002 8.6596 20.6941 9.79937 20.9218 11.0361M25.9373 19.7173V23.4808C25.9387 23.8302 25.8672 24.176 25.7273 24.4961C25.5874 24.8163 25.3822 25.1036 25.1249 25.3398C24.8676 25.576 24.5638 25.7558 24.233 25.8678C23.9022 25.9797 23.5516 26.0213 23.2038 25.9898C19.3455 25.5704 15.6392 24.2513 12.3829 22.1385C9.35328 20.2124 6.78472 17.6426 4.85959 14.6115C2.7405 11.3387 1.42175 7.6126 1.01018 3.73494C0.978844 3.38803 1.02005 3.03839 1.13118 2.70828C1.2423 2.37818 1.42091 2.07484 1.65563 1.81758C1.89035 1.56032 2.17604 1.35478 2.49451 1.21404C2.81298 1.0733 3.15725 1.00045 3.5054 1.00012H7.26704C7.87555 0.99413 8.46549 1.20972 8.92688 1.60671C9.38827 2.00371 9.68963 2.55501 9.7748 3.15787C9.93357 4.36227 10.228 5.54484 10.6525 6.68302C10.8212 7.13204 10.8577 7.62003 10.7577 8.08917C10.6577 8.55831 10.4254 8.98893 10.0883 9.33002L8.49584 10.9232C10.2808 14.0639 12.88 16.6644 16.0191 18.4503L17.6115 16.857C17.9525 16.5197 18.3829 16.2873 18.8518 16.1872C19.3207 16.0872 19.8084 16.1237 20.2572 16.2925C21.3948 16.7172 22.5768 17.0118 23.7806 17.1707C24.3897 17.2566 24.946 17.5636 25.3436 18.0331C25.7413 18.5027 25.9526 19.1021 25.9373 19.7173Z" stroke="#102C56" stroke-width="1.6" stroke-linecap="round" stroke-linejoin="round"/>
</svg>
