<svg width="59" height="59" viewBox="0 0 59 59" fill="none" xmlns="http://www.w3.org/2000/svg">
<circle cx="29.5" cy="29.5" r="28.75" stroke="#FF801F" stroke-width="1.5" stroke-dasharray="3 3"/>
<path d="M30.0126 33.5121L30.014 33.5128C30.0541 33.5336 30.0954 33.5547 30.1372 33.5761C30.1986 33.6074 30.2613 33.6394 30.324 33.6724L31.8076 32.2001L31.8077 32.2M30.0126 33.5121L35.1832 32.2758C34.7117 31.7871 34.143 31.5258 33.5404 31.5258C32.9425 31.5258 32.369 31.7823 31.8781 32.271L31.8077 32.2M30.0126 33.5121C29.8367 33.4246 29.676 33.3445 29.5399 33.2604C28.1119 32.3574 26.8126 31.1798 25.5646 29.6534C24.9814 28.9194 24.5854 28.3007 24.2958 27.6794C24.6376 27.365 24.9583 27.041 25.2686 26.7275C25.3035 26.6923 25.3382 26.6572 25.3728 26.6223C25.4412 26.5543 25.5094 26.4851 25.5774 26.4162C25.6455 26.3472 25.7132 26.2786 25.7809 26.2112C26.3068 25.6876 26.5758 25.0801 26.5758 24.4662C26.5758 23.8522 26.3068 23.2447 25.7809 22.7211L24.454 21.4001C24.3031 21.2499 24.1487 21.0962 24.0042 20.9428L24.0042 20.9427L24.0031 20.9416C23.7117 20.6418 23.4043 20.3308 23.0866 20.0389C22.5991 19.5591 22.0114 19.3 21.3895 19.3C20.7673 19.3 20.1698 19.5593 19.6678 20.039L19.6678 20.039L19.6664 20.0404L19.6615 20.0453L19.6567 20.0501L19.6564 20.0504L18.0041 21.7098L18.0747 21.7807L18.0038 21.7101L18.004 21.71C17.3653 22.3458 17.0002 23.1226 16.9204 24.0218L16.9203 24.0224C16.8018 25.4582 17.2265 26.7915 17.5484 27.6559C18.3404 29.7829 19.5231 31.7523 21.2836 33.8593L21.2838 33.8596C23.4215 36.4008 25.9942 38.4081 28.9331 39.8224L28.9338 39.8227C30.0541 40.3513 31.5604 40.9824 33.2472 41.0902L33.2489 41.0902C33.3506 41.0951 33.4599 41.1 33.5598 41.1C34.7092 41.1 35.6791 40.6876 36.4376 39.8679L36.4472 39.8576L36.4488 39.8544M30.0126 33.5121L36.4652 39.8341M31.8077 32.2C32.3142 31.6958 32.912 31.4258 33.5404 31.4258C34.1737 31.4258 34.7672 31.7009 35.2545 32.2058M31.8077 32.2L35.2545 32.2058M35.2545 32.2058C35.2547 32.206 35.2549 32.2062 35.2551 32.2064L37.9217 34.8707C37.9218 34.8708 37.9219 34.8709 37.922 34.871C38.4289 35.3708 38.7 35.9712 38.7 36.6016C38.7 37.2266 38.4343 37.8312 37.9381 38.3452M35.2545 32.2058L37.8661 38.2758M37.9381 38.3452C37.9381 38.3452 37.9381 38.3453 37.938 38.3453L37.8661 38.2758M37.9381 38.3452C37.9382 38.3451 37.9382 38.3451 37.9382 38.3451L37.8661 38.2758M37.9381 38.3452C37.7277 38.5644 37.5127 38.7735 37.3033 38.9724M37.8661 38.2758C37.6571 38.4936 37.4432 38.7016 37.2342 38.9M37.3033 38.9724C37.3034 38.9723 37.3035 38.9721 37.3036 38.972L37.2342 38.9M37.3033 38.9724C37.281 38.9939 37.2588 39.0153 37.2367 39.0365C36.9562 39.3066 36.6944 39.5586 36.4652 39.8341M37.3033 38.9724C37.3032 38.9724 37.3032 38.9725 37.3031 38.9726L37.2342 38.9M37.2342 38.9L36.4652 39.8341M36.4652 39.8341C36.4679 39.8302 36.4705 39.8257 36.473 39.8207L36.3837 39.7758L36.4607 39.8397C36.4622 39.8378 36.4637 39.836 36.4652 39.8341ZM36.4652 39.8341C36.4618 39.8393 36.4584 39.8436 36.4555 39.8471C36.4531 39.8499 36.4508 39.8524 36.4488 39.8544M36.4488 39.8544L36.4536 39.8449C36.4503 39.8515 36.4467 39.8561 36.4448 39.8583C36.4443 39.859 36.4437 39.8595 36.4434 39.8599C36.443 39.8603 36.4431 39.8602 36.4445 39.8588L36.4448 39.8585C36.4456 39.8577 36.447 39.8563 36.4488 39.8544ZM33.3474 39.5938L33.3477 39.5938C33.4167 39.5984 33.4911 39.5984 33.5647 39.5984C34.2957 39.5984 34.8469 39.3627 35.3177 38.8623C35.622 38.5058 35.9451 38.1891 36.261 37.8892C36.2986 37.8526 36.3356 37.8168 36.3721 37.7814C36.5344 37.6244 36.6865 37.4771 36.8357 37.3182C36.8374 37.3155 36.839 37.3133 36.8403 37.3115C36.847 37.3028 36.8543 37.2961 36.8614 37.291C37.0916 37.0494 37.1949 36.8213 37.1944 36.6067C37.1939 36.3895 37.0869 36.1631 36.8481 35.9277L36.8478 35.9273L34.1697 33.2612L34.1648 33.2564L34.16 33.2515L34.1567 33.2483L34.1568 33.2482C34.0135 33.0918 33.7905 32.9274 33.5306 32.9274C33.2658 32.9274 33.028 33.1012 32.8673 33.2612L31.205 34.9161L31.2039 34.9172C31.1181 35.0026 30.8405 35.2791 30.3957 35.2791C30.2179 35.2791 30.0472 35.2358 29.87 35.1476C29.8552 35.1403 29.8414 35.1316 29.8325 35.1261C29.822 35.1195 29.8164 35.1161 29.8116 35.1137L29.8034 35.1096L29.8036 35.1093C29.6674 35.0251 29.5065 34.9449 29.3305 34.8573L29.3286 34.8564C29.1353 34.7602 28.9274 34.6567 28.7239 34.5282C28.7239 34.5282 28.7238 34.5281 28.7238 34.5281L28.7772 34.4436C27.217 33.4613 25.8027 32.1791 24.4612 30.5339L33.3474 39.5938ZM33.3474 39.5938C31.924 39.5031 30.5971 38.9491 29.5932 38.4711C26.8554 37.1516 24.4511 35.2783 22.4528 32.9036C20.8012 30.9217 19.6996 29.0927 18.9704 27.1313L18.9703 27.131C18.5215 25.9347 18.3607 25.0114 18.4319 24.1455C18.4786 23.603 18.687 23.1558 19.0736 22.7709L20.7298 21.122C20.9561 20.9109 21.1852 20.8065 21.3992 20.8065C21.6654 20.8065 21.889 20.9675 22.0382 21.1161L22.0455 21.1233L22.0528 21.1306L22.0528 21.1306L22.0553 21.1329C22.3498 21.4069 22.6303 21.6909 22.9266 21.9956L22.9266 21.9956C23.0022 22.0733 23.0791 22.151 23.1562 22.229L23.1579 22.2307C23.2345 22.3082 23.3115 22.386 23.3883 22.465L23.3883 22.465L23.3894 22.4661L24.7163 23.787C24.9644 24.034 25.0733 24.2568 25.0733 24.4662C25.0733 24.6755 24.9644 24.8983 24.7163 25.1453C24.6682 25.1931 24.6212 25.2405 24.5745 25.2875C24.4827 25.38 24.3926 25.4708 24.2996 25.5602L24.2995 25.5602L24.2975 25.5622C23.8896 25.978 23.5026 26.3632 23.0823 26.7383L23.0822 26.7382L23.0787 26.7418C23.0787 26.7418 23.0786 26.7418 23.0786 26.7418C23.0785 26.7419 23.0782 26.7422 23.0776 26.7427L23.0748 26.745L23.07 26.749C23.0651 26.7532 23.0558 26.7613 23.0467 26.7736C22.8279 26.9943 22.7337 27.2179 22.7094 27.4274C22.685 27.6365 22.7313 27.8232 22.7766 27.9657L22.7765 27.9657L22.777 27.9673L22.7843 27.989L22.7916 28.0108L22.7914 28.0109L22.7941 28.0174C23.1437 28.8606 23.6354 29.6524 24.3779 30.5911L24.3774 30.5915L24.3858 30.5999L24.387 30.6011L33.3474 39.5938ZM36.9495 37.2776C36.9624 37.2816 36.9762 37.2889 36.9883 37.3004C36.9677 37.3239 36.9459 37.3474 36.9232 37.371V37.2732C36.9312 37.2734 36.9401 37.2747 36.9495 37.2776Z" fill="#102C56" stroke="#102C56" stroke-width="0.2"/>
<path d="M36.0857 29.0885L36.0857 29.0885L36.0893 29.088C36.5434 29.0143 36.8421 28.5851 36.769 28.1341L36.7689 28.1334C36.4749 26.4076 35.6583 24.8343 34.4121 23.5881C33.166 22.3418 31.5928 21.5251 29.8672 21.2311L29.8672 21.2311L29.8665 21.231C29.4148 21.1578 28.9925 21.4571 28.913 21.9039C28.8337 22.3492 29.1262 22.7852 29.5814 22.8592C30.9695 23.0924 32.2306 23.7493 33.2381 24.7569C34.2453 25.7642 34.8971 27.0255 35.1356 28.4143C35.2032 28.8189 35.5528 29.1 35.9496 29.1C35.9949 29.1 36.0356 29.0948 36.0728 29.0901C36.0771 29.0896 36.0814 29.089 36.0857 29.0885Z" fill="#102C56" stroke="#102C56" stroke-width="0.2"/>
<path d="M28.9112 17.5812L28.9112 17.5812L28.9109 17.5827C28.8381 18.032 29.136 18.4517 29.5852 18.5306L29.5858 18.5307C32.0537 18.9493 34.3048 20.1201 36.0956 21.9061C37.8862 23.6974 39.0513 25.9493 39.4698 28.4183C39.5369 28.8206 39.8843 29.1 40.2787 29.1C40.3238 29.1 40.3642 29.0949 40.4011 29.0902C40.4054 29.0896 40.4097 29.0891 40.4139 29.0885L40.4139 29.0886L40.4164 29.0882C40.8622 29.021 41.1663 28.5944 41.0876 28.1497C40.6088 25.3403 39.2851 22.7837 37.2518 20.7496C35.2185 18.7156 32.663 17.3915 29.8546 16.9125C29.4084 16.8332 28.9899 17.139 28.9112 17.5812Z" fill="#102C56" stroke="#102C56" stroke-width="0.2"/>
</svg>
