<svg width="59" height="59" viewBox="0 0 59 59" fill="none" xmlns="http://www.w3.org/2000/svg">
<circle cx="29.5" cy="29.5" r="28.75" stroke="#FF801F" stroke-width="1.5" stroke-dasharray="3 3"/>
<path d="M19.172 40C18.5798 40 18.0697 39.7887 17.6419 39.3662C17.214 38.9437 17 38.44 17 37.8552V23.1495C17 22.5634 17.214 22.0586 17.6419 21.6352C18.0697 21.2117 18.5798 21 19.172 21H38.8232C39.4167 21 39.9279 21.2117 40.3567 21.6352C40.7856 22.0586 41 22.5634 41 23.1495V37.8552C41 38.44 40.7856 38.9437 40.3567 39.3662C39.9279 39.7887 39.4167 40 38.8232 40H19.172ZM28.9976 31.4312L19.172 25.1082V37.8552H38.8232V25.1082L28.9976 31.4312ZM28.9976 29.3688L38.7232 23.1495H19.292L28.9976 29.3688ZM19.172 25.1082V23.1495V37.8552V25.1082Z" fill="#102C56"/>
</svg>
