<svg width="59" height="59" viewBox="0 0 59 59" fill="none" xmlns="http://www.w3.org/2000/svg">
<path d="M30.0501 20C32.0883 20.2147 33.9922 21.1188 35.4469 22.5626C36.9016 24.0063 37.8199 25.9034 38.0501 27.94M30.0501 24C31.0336 24.1939 31.9361 24.679 32.6404 25.3923C33.3448 26.1056 33.8185 27.0141 34.0001 28M38.0001 34.92V37.92C38.0012 38.1985 37.9441 38.4741 37.8326 38.7293C37.721 38.9845 37.5574 39.2136 37.3521 39.4018C37.1469 39.5901 36.9046 39.7335 36.6408 39.8227C36.377 39.9119 36.0974 39.945 35.8201 39.92C32.7429 39.5856 29.7871 38.5341 27.1901 36.85C24.7739 35.3146 22.7254 33.2661 21.1901 30.85C19.5 28.2412 18.4483 25.271 18.1201 22.18C18.0951 21.9034 18.1279 21.6247 18.2166 21.3616C18.3052 21.0985 18.4476 20.8567 18.6348 20.6516C18.822 20.4465 19.0499 20.2827 19.3038 20.1705C19.5578 20.0583 19.8324 20.0002 20.1101 20H23.1101C23.5954 19.9952 24.0658 20.1671 24.4338 20.4835C24.8018 20.8 25.0421 21.2394 25.1101 21.72C25.2367 22.68 25.4715 23.6227 25.8101 24.53C25.9446 24.8879 25.9737 25.2769 25.894 25.6509C25.8142 26.0248 25.6289 26.3681 25.3601 26.64L24.0901 27.91C25.5136 30.4135 27.5865 32.4864 30.0901 33.91L31.3601 32.64C31.6319 32.3711 31.9752 32.1858 32.3492 32.1061C32.7231 32.0263 33.1121 32.0554 33.4701 32.19C34.3773 32.5285 35.32 32.7634 36.2801 32.89C36.7658 32.9585 37.2095 33.2032 37.5266 33.5775C37.8437 33.9518 38.0122 34.4296 38.0001 34.92Z" stroke="#102C56" stroke-width="2" stroke-linecap="round" stroke-linejoin="round"/>
<circle cx="29.5" cy="29.5" r="28.75" stroke="#FF801F" stroke-width="1.5" stroke-dasharray="3 3"/>
</svg>
