<svg width="24" height="30" viewBox="0 0 24 30" fill="none" xmlns="http://www.w3.org/2000/svg">
<path d="M2.25 30C1.65 30 1.125 29.775 0.675 29.325C0.225 28.875 0 28.35 0 27.75V2.25C0 1.65 0.225 1.125 0.675 0.675C1.125 0.225 1.65 0 2.25 0H15.7875L24 8.2125V27.75C24 28.35 23.775 28.875 23.325 29.325C22.875 29.775 22.35 30 21.75 30H2.25ZM14.6625 9.225H21.75L14.6625 2.25V9.225Z" fill="#C9C9C9"/>
<path d="M7.93945 20.1851H6.65771V19.4468H7.93945C8.14909 19.4468 8.31885 19.4126 8.44873 19.3442C8.58089 19.2736 8.67773 19.1779 8.73926 19.0571C8.80078 18.9341 8.83154 18.7939 8.83154 18.6367C8.83154 18.484 8.80078 18.3416 8.73926 18.2095C8.67773 18.0773 8.58089 17.9702 8.44873 17.8882C8.31885 17.8062 8.14909 17.7651 7.93945 17.7651H6.96533V22H6.02539V17.0234H7.93945C8.32682 17.0234 8.65723 17.0929 8.93066 17.2319C9.20638 17.3687 9.41602 17.5589 9.55957 17.8027C9.7054 18.0443 9.77832 18.32 9.77832 18.6299C9.77832 18.9512 9.7054 19.228 9.55957 19.4604C9.41602 19.6929 9.20638 19.8717 8.93066 19.9971C8.65723 20.1224 8.32682 20.1851 7.93945 20.1851ZM12.0034 22H10.9302L10.937 21.2617H12.0034C12.2928 21.2617 12.5355 21.1979 12.7314 21.0703C12.9274 20.9404 13.0755 20.7547 13.1758 20.5132C13.276 20.2694 13.3262 19.9777 13.3262 19.6382V19.3818C13.3262 19.1198 13.2977 18.8885 13.2407 18.688C13.1838 18.4875 13.0994 18.3188 12.9878 18.1821C12.8784 18.0454 12.7428 17.9417 12.5811 17.8711C12.4193 17.8005 12.2336 17.7651 12.0239 17.7651H10.9097V17.0234H12.0239C12.3566 17.0234 12.6597 17.0793 12.9331 17.1909C13.2088 17.3026 13.4469 17.4632 13.6475 17.6729C13.8503 17.8802 14.0052 18.1286 14.1123 18.418C14.2217 18.7074 14.2764 19.0309 14.2764 19.3887V19.6382C14.2764 19.9937 14.2217 20.3172 14.1123 20.6089C14.0052 20.8983 13.8503 21.1466 13.6475 21.354C13.4469 21.5614 13.2077 21.7209 12.9297 21.8325C12.6517 21.9442 12.3429 22 12.0034 22ZM11.4565 17.0234V22H10.5166V17.0234H11.4565ZM16.0161 17.0234V22H15.0762V17.0234H16.0161ZM18.0225 19.1733V19.915H15.77V19.1733H18.0225ZM18.2856 17.0234V17.7651H15.77V17.0234H18.2856Z" fill="#5F6368"/>
</svg>
